<?xml version="1.0" encoding="UTF-8" standalone="no"?>
<!DOCTYPE svg PUBLIC "-//W3C//DTD SVG 1.1//EN" "http://www.w3.org/Graphics/SVG/1.1/DTD/svg11.dtd">
<svg width="100" height="100" viewBox="0 0 469 469" version="1.1" xmlns="http://www.w3.org/2000/svg" xmlns:xlink="http://www.w3.org/1999/xlink" xml:space="preserve" fill="currentColor">
    <style>
        path {
            fill: #D92E08;
        }
        @media (prefers-color-scheme: dark) {
            path {
                fill: #e2a395;
            }
        }
    </style>
    <path d="M234.5,0C105,0 0,105 0,234.5C0,364 105,469 234.5,469C364,469 469,364 469,234.5C469,105 364,0 234.5,0ZM355.4,391.4C340.5,391.4 328.4,379.3 328.4,364.4C328.4,349.5 340.5,337.4 355.4,337.4C370.3,337.4 382.4,349.5 382.4,364.4C382.4,379.3 370.3,391.4 355.4,391.4ZM218.8,364.4C135.9,364.4 68.7,297.2 68.7,214.3C68.7,131.4 135.9,64.2 218.8,64.2C301.7,64.2 368.9,131.4 368.9,214.3C368.9,297.2 301.7,364.4 218.8,364.4ZM171.5,111.3C202.242,111.3 227.2,136.258 227.2,167C227.2,197.742 202.242,222.7 171.5,222.7C140.758,222.7 115.8,197.742 115.8,167C115.8,136.258 140.758,111.3 171.5,111.3Z" />
</svg>